<?xml version="1.0" encoding="UTF-8" standalone="no"?>
<!-- Created with Inkscape (http://www.inkscape.org/) -->

<svg
   xmlns:dc="http://purl.org/dc/elements/1.1/"
   xmlns:cc="http://creativecommons.org/ns#"
   xmlns:rdf="http://www.w3.org/1999/02/22-rdf-syntax-ns#"
   xmlns:svg="http://www.w3.org/2000/svg"
   xmlns="http://www.w3.org/2000/svg"
   xmlns:sodipodi="http://sodipodi.sourceforge.net/DTD/sodipodi-0.dtd"
   xmlns:inkscape="http://www.inkscape.org/namespaces/inkscape"
   width="744.09448819"
   height="1052.3622047"
   id="svg2"
   version="1.1"
   inkscape:version="0.48.4 r9939"
   inkscape:export-filename="/home/fil/code/crowbrain/chi2014/example_instances.png"
   inkscape:export-xdpi="90"
   inkscape:export-ydpi="90"
   sodipodi:docname="New document 1">
  <defs
     id="defs4" />
  <sodipodi:namedview
     id="base"
     pagecolor="#ffffff"
     bordercolor="#666666"
     borderopacity="1.0"
     inkscape:pageopacity="0.0"
     inkscape:pageshadow="2"
     inkscape:zoom="0.49497475"
     inkscape:cx="305.05235"
     inkscape:cy="733.8983"
     inkscape:document-units="px"
     inkscape:current-layer="layer1"
     showgrid="false"
     inkscape:window-width="1920"
     inkscape:window-height="309"
     inkscape:window-x="1280"
     inkscape:window-y="771"
     inkscape:window-maximized="0" />
  <metadata
     id="metadata7">
    <rdf:RDF>
      <cc:Work
         rdf:about="">
        <dc:format>image/svg+xml</dc:format>
        <dc:type
           rdf:resource="http://purl.org/dc/dcmitype/StillImage" />
        <dc:title></dc:title>
      </cc:Work>
    </rdf:RDF>
  </metadata>
  <g
     inkscape:label="Layer 1"
     inkscape:groupmode="layer"
     id="layer1">
    <flowRoot
       xml:space="preserve"
       id="flowRoot3757"
       style="font-size:40px;font-style:normal;font-weight:normal;line-height:125%;letter-spacing:0px;word-spacing:0px;fill:#000000;fill-opacity:1;stroke:none;font-family:Sans"><flowRegion
         id="flowRegion3759"><rect
           id="rect3761"
           width="333.35034"
           height="43.436558"
           x="185.86807"
           y="223.02695" /></flowRegion><flowPara
         id="flowPara3763">Sto</flowPara></flowRoot>    <path
       transform="matrix(1.1441759,0,0,0.98820055,-344.13836,200.89265)"
       d="m 606.09152,331.61835 a 194.95944,100.51018 0 1 1 -389.91888,0 194.95944,100.51018 0 1 1 389.91888,0 z"
       sodipodi:ry="100.51018"
       sodipodi:rx="194.95944"
       sodipodi:cy="331.61835"
       sodipodi:cx="411.13208"
       id="path3773"
       style="fill:#ffffff;fill-rule:evenodd;stroke:#000000;stroke-width:5.04042339;stroke-linecap:butt;stroke-linejoin:miter;stroke-miterlimit:4;stroke-opacity:1;stroke-dasharray:none"
       sodipodi:type="arc" />
    <path
       sodipodi:type="arc"
       style="fill:#ffffff;fill-rule:evenodd;stroke:#000000;stroke-width:5.04042339;stroke-linecap:butt;stroke-linejoin:miter;stroke-miterlimit:4;stroke-opacity:1;stroke-dasharray:none"
       id="path3775"
       sodipodi:cx="411.13208"
       sodipodi:cy="331.61835"
       sodipodi:rx="194.95944"
       sodipodi:ry="100.51018"
       d="m 606.09152,331.61835 a 194.95944,100.51018 0 1 1 -389.91888,0 194.95944,100.51018 0 1 1 389.91888,0 z"
       transform="matrix(1.1441759,0,0,0.98820055,121.54196,200.89265)" />
    <text
       xml:space="preserve"
       style="font-size:40px;font-style:normal;font-weight:normal;line-height:125%;letter-spacing:0px;word-spacing:0px;fill:#000000;fill-opacity:1;stroke:none;font-family:Sans"
       x="-16.162434"
       y="514.961"
       id="text3777"
       sodipodi:linespacing="125%"><tspan
         sodipodi:role="line"
         id="tspan3779"
         x="-16.162434"
         y="514.961"
         style="font-size:32px">1. Coin Storage</tspan><tspan
         sodipodi:role="line"
         x="-16.162434"
         y="554.961"
         style="font-size:32px"
         id="tspan3781">2. Change Holder</tspan></text>
    <text
       sodipodi:linespacing="125%"
       id="text3785"
       y="540.2149"
       x="421.23364"
       style="font-size:40px;font-style:normal;font-weight:normal;line-height:125%;letter-spacing:0px;word-spacing:0px;fill:#000000;fill-opacity:1;stroke:none;font-family:Sans"
       xml:space="preserve"><tspan
         id="tspan3789"
         style="font-size:32px"
         y="540.2149"
         x="421.23364"
         sodipodi:role="line">1. Travel Jewelry Case</tspan></text>
    <path
       style="fill:#000000;stroke-width:10;stroke-miterlimit:4;stroke-dasharray:none"
       id="path3836"
       d="m 238.25673,320.25608 c -10.13117,6.30697 -19.14835,14.17299 -27.98173,22.1443 -14.89141,14.58304 -28.26367,30.6428 -41.05284,47.0731 -8.63995,11.30643 -16.55915,23.14318 -23.06764,35.81141 -3.59619,6.99969 -4.35465,9.0775 -7.34112,16.04386 -7.17416,17.89132 -6.23835,15.45699 -34.25728,25.64807 -1.13169,0.41162 -1.15156,-2.12621 -1.55532,-3.26072 -0.43785,-1.23029 -0.63811,-2.53262 -0.95717,-3.79892 -1.99057,-12.58212 -3.047735,-25.29123 -3.988965,-37.9877 -0.576087,-6.41653 -1.172702,-12.84306 -2.082686,-19.22333 -0.1764,-1.2368 -0.375158,-2.47137 -0.624023,-3.69565 -0.125213,-0.61602 -1.0573,-1.53426 -0.49696,-1.81916 9.118534,-4.63624 18.762024,-8.15816 28.143044,-12.23724 0.6811,11.93229 1.97772,23.85134 3.38576,35.72195 0.60704,5.5274 1.49186,11.01811 2.38998,16.5038 0.34882,2.13058 0.69257,4.91941 1.47907,7.005 0.28503,0.7558 0.75805,1.42662 1.13707,2.13994 0.57081,0.2958 1.08255,0.75863 1.71241,0.8874 3.64053,0.74429 11.8571,-0.94919 15.06096,-1.7535 7.6931,-1.93131 11.5493,-3.6051 19.19412,-6.4158 11.81415,-4.7588 23.42583,-10.08639 34.6056,-16.20006 3.47933,-1.90267 6.85552,-3.98816 10.28328,-5.98224 0,0 -22.98802,18.60004 -22.98802,18.60004 l 0,0 c -3.40344,1.91338 -6.76244,3.90805 -10.2103,5.74015 -11.37273,6.04316 -23.13403,11.35182 -35.09073,16.12493 -7.99203,2.88341 -12.11068,4.65699 -20.19568,6.55368 -4.8849,1.14596 -12.5621,2.82005 -17.43952,0.29829 -0.96865,-0.50082 -1.62627,-1.45315 -2.43941,-2.17972 -0.45065,-0.93364 -1.00791,-1.82294 -1.35193,-2.80089 -0.91095,-2.58953 -0.98671,-4.74569 -1.32613,-7.46786 -0.69688,-5.589 -1.491657,-11.16616 -2.059775,-16.77076 -1.383687,-11.90594 -2.385815,-23.86513 -4.475242,-35.67983 9.430177,-5.67695 18.531567,-11.93979 28.290517,-17.03086 0.64272,-0.3353 0.14527,1.44263 0.20537,2.16506 0.10877,1.30727 0.1949,2.61635 0.30121,3.92382 0.52905,6.50577 1.13115,13.00543 1.74504,19.50364 0.92043,12.41699 2.13804,24.8292 4.49497,37.06786 3.96701,14.08645 6.66704,1.43382 -25.3595,19.78503 -0.65384,0.37465 1.44581,-0.5945 1.93664,-1.1663 1.67556,-1.95198 4.09479,-7.7517 4.91752,-9.53277 2.6722,-5.99194 4.61415,-10.53774 7.63195,-16.45401 6.53746,-12.81638 14.37082,-24.88418 23.06878,-36.33609 12.58243,-16.44673 25.86636,-32.40415 40.27161,-47.29479 8.3135,-7.83922 16.84871,-15.55198 26.30891,-22.00178 0,0 29.77816,-11.65135 29.77816,-11.65135 z"
       inkscape:connector-curvature="0" />
    <path
       inkscape:connector-curvature="0"
       d="m 466.82816,317.39894 c 10.53156,6.55622 19.9051,14.73311 29.08758,23.01946 15.47993,15.15936 29.38067,31.85382 42.67527,48.93345 8.98141,11.75327 17.21358,24.05781 23.97929,37.2267 3.73831,7.27632 4.52675,9.43624 7.63125,16.67792 7.45768,18.59839 6.48489,16.06786 35.61114,26.6617 1.17642,0.42788 1.19707,-2.21024 1.61679,-3.38959 0.45515,-1.27891 0.66333,-2.63271 0.995,-3.94906 2.06924,-13.07937 3.16818,-26.29075 4.1466,-39.48899 0.59886,-6.67012 1.21905,-13.35063 2.165,-19.98305 0.18337,-1.28568 0.38999,-2.56904 0.64868,-3.8417 0.13016,-0.64037 1.09909,-1.5949 0.5166,-1.89106 -9.4789,-4.81946 -19.5035,-8.48057 -29.25526,-12.72086 -0.70802,12.40386 -2.05588,24.79396 -3.51957,37.1337 -0.63103,5.74585 -1.55082,11.45355 -2.48443,17.15604 -0.36261,2.21478 -0.71995,5.11383 -1.53753,7.28184 -0.29629,0.78567 -0.78801,1.483 -1.18201,2.22452 -0.59336,0.30749 -1.12533,0.78861 -1.78008,0.92247 -3.78441,0.7737 -12.3257,-0.98671 -15.65618,-1.8228 -7.99713,-2.00764 -12.00573,-3.74758 -19.95268,-6.66936 -12.28105,-4.94687 -24.35163,-10.48501 -35.97323,-16.84029 -3.61684,-1.97787 -7.12646,-4.14578 -10.68968,-6.21867 0,0 23.89651,19.33513 23.89651,19.33513 l 0,0 c 3.53795,1.989 7.0297,4.0625 10.61382,5.967 11.82219,6.28199 24.0483,11.80045 36.47754,16.7622 8.30788,2.99736 12.5893,4.84103 20.99382,6.81268 5.07795,1.19125 13.05856,2.9315 18.12874,0.31008 1.00693,-0.52061 1.69054,-1.51058 2.53582,-2.26586 0.46846,-0.97054 1.04774,-1.89499 1.40536,-2.91158 0.94695,-2.69187 1.0257,-4.93325 1.37854,-7.763 0.72442,-5.80988 1.5506,-11.60745 2.14117,-17.43355 1.43837,-12.37647 2.48011,-24.80829 4.6521,-37.08992 -9.80285,-5.9013 -19.26393,-12.41165 -29.40856,-17.70392 -0.66812,-0.34856 -0.15101,1.49964 -0.21349,2.25062 -0.11307,1.35893 -0.2026,2.71975 -0.31311,4.07889 -0.54996,6.76288 -1.17586,13.51941 -1.81401,20.27444 -0.9568,12.90771 -2.22254,25.81046 -4.67261,38.5328 -4.12379,14.64315 -6.93053,1.49048 26.36172,20.56694 0.67968,0.38946 -1.50295,-0.61799 -2.01318,-1.21239 -1.74178,-2.02912 -4.25662,-8.05805 -5.11186,-9.90951 -2.77781,-6.22874 -4.79651,-10.9542 -7.93357,-17.10428 -6.79582,-13.32289 -14.93876,-25.86762 -23.98047,-37.77211 -13.0797,-17.09672 -26.88861,-33.68478 -41.86317,-49.16391 -8.64205,-8.14903 -17.51458,-16.1666 -27.34865,-22.8713 0,0 -30.95501,-12.11182 -30.95501,-12.11182 z"
       id="path3838"
       style="fill:#000000;stroke-width:10;stroke-miterlimit:4;stroke-dasharray:none" />
    <path
       sodipodi:type="arc"
       style="fill:#ffffff;fill-rule:evenodd;stroke:#000000;stroke-width:5.04042339;stroke-linecap:butt;stroke-linejoin:miter;stroke-miterlimit:4;stroke-opacity:1;stroke-dasharray:none"
       id="path2985"
       sodipodi:cx="411.13208"
       sodipodi:cy="331.61835"
       sodipodi:rx="194.95944"
       sodipodi:ry="100.51018"
       d="m 606.09152,331.61835 a 194.95944,100.51018 0 1 1 -389.91888,0 194.95944,100.51018 0 1 1 389.91888,0 z"
       transform="matrix(1.1441759,0,0,0.98820055,-112.81343,-53.665781)" />
    <text
       xml:space="preserve"
       style="font-size:40px;font-style:normal;font-weight:normal;line-height:125%;letter-spacing:0px;word-spacing:0px;fill:#000000;fill-opacity:1;stroke:none;font-family:Sans"
       x="187.88838"
       y="266.46353"
       id="text3765"
       sodipodi:linespacing="125%"><tspan
         sodipodi:role="line"
         id="tspan3767"
         x="187.88838"
         y="266.46353"
         style="font-size:32px">1. Storage Container</tspan><tspan
         sodipodi:role="line"
         x="187.88838"
         y="306.46353"
         style="font-size:32px"
         id="tspan3783">2. Small Storage Box</tspan></text>
  </g>
</svg>
